<?xml version="1.0" encoding="UTF-8" standalone="no"?>
<svg
   xmlns:sketch="http://www.bohemiancoding.com/sketch/ns"
   xmlns:dc="http://purl.org/dc/elements/1.1/"
   xmlns:cc="http://creativecommons.org/ns#"
   xmlns:rdf="http://www.w3.org/1999/02/22-rdf-syntax-ns#"
   xmlns:svg="http://www.w3.org/2000/svg"
   xmlns="http://www.w3.org/2000/svg"
   xmlns:xlink="http://www.w3.org/1999/xlink"
   xmlns:sodipodi="http://sodipodi.sourceforge.net/DTD/sodipodi-0.dtd"
   xmlns:inkscape="http://www.inkscape.org/namespaces/inkscape"
   id="svg2"
   version="1.1"
   viewBox="0 0 48 48"
   height="48px"
   width="48px"
   inkscape:version="0.91 r13725"
   sodipodi:docname="hermes2.svg">
  <sodipodi:namedview
     pagecolor="#ffffff"
     bordercolor="#666666"
     borderopacity="1"
     objecttolerance="10"
     gridtolerance="10"
     guidetolerance="10"
     inkscape:pageopacity="0"
     inkscape:pageshadow="2"
     inkscape:window-width="1920"
     inkscape:window-height="1014"
     id="namedview35"
     showgrid="false"
     inkscape:zoom="9.8333333"
     inkscape:cx="-10.146694"
     inkscape:cy="15.959601"
     inkscape:window-x="0"
     inkscape:window-y="27"
     inkscape:window-maximized="1"
     inkscape:current-layer="Hermes" />
  <metadata
     id="metadata57">
    <rdf:RDF>
      <cc:Work
         rdf:about="">
        <dc:format>image/svg+xml</dc:format>
        <dc:type
           rdf:resource="http://purl.org/dc/dcmitype/StillImage" />
        <dc:title>Hermes</dc:title>
      </cc:Work>
    </rdf:RDF>
  </metadata>
  <!-- Generator: Sketch 3.2.2 (9983) - http://www.bohemiancoding.com/sketch -->
  <title
     id="title4">Hermes</title>
  <desc
     id="desc6">Created with Sketch.</desc>
  <defs
     id="defs8">
    <filter
       id="filter-1"
       filterUnits="objectBoundingBox"
       height="200%"
       width="200%"
       y="-50%"
       x="-50%">
      <feOffset
         id="feOffset11"
         result="shadowOffsetOuter1"
         in="SourceAlpha"
         dy="0.5"
         dx="0" />
      <feGaussianBlur
         id="feGaussianBlur13"
         result="shadowBlurOuter1"
         in="shadowOffsetOuter1"
         stdDeviation="0.75" />
      <feColorMatrix
         id="feColorMatrix15"
         result="shadowMatrixOuter1"
         type="matrix"
         in="shadowBlurOuter1"
         values="0 0 0 0 0   0 0 0 0 0   0 0 0 0 0  0 0 0 0.084 0" />
      <feMerge
         id="feMerge17">
        <feMergeNode
           id="feMergeNode19"
           in="shadowMatrixOuter1" />
        <feMergeNode
           id="feMergeNode21"
           in="SourceGraphic" />
      </feMerge>
    </filter>
    <filter
       id="filter-2"
       filterUnits="objectBoundingBox"
       height="200%"
       width="200%"
       y="-50%"
       x="-50%">
      <feOffset
         id="feOffset24"
         result="shadowOffsetOuter1"
         in="SourceAlpha"
         dy="0.5"
         dx="0" />
      <feGaussianBlur
         id="feGaussianBlur26"
         result="shadowBlurOuter1"
         in="shadowOffsetOuter1"
         stdDeviation="0.75" />
      <feColorMatrix
         id="feColorMatrix28"
         result="shadowMatrixOuter1"
         type="matrix"
         in="shadowBlurOuter1"
         values="0 0 0 0 0   0 0 0 0 0   0 0 0 0 0  0 0 0 0.084 0" />
      <feMerge
         id="feMerge30">
        <feMergeNode
           id="feMergeNode32"
           in="shadowMatrixOuter1" />
        <feMergeNode
           id="feMergeNode34"
           in="SourceGraphic" />
      </feMerge>
    </filter>
    <rect
       rx="2"
       height="25.3953488"
       width="36.0515021"
       y="0"
       x="0"
       id="path-3" />
    <linearGradient
       id="linearGradient-5"
       y2="82.9922954%"
       x2="80.090764%"
       y1="23.8350533%"
       x1="20.0850885%">
      <stop
         id="stop38"
         offset="0%"
         stop-opacity="0.1"
         stop-color="#000000" />
      <stop
         id="stop40"
         offset="100%"
         stop-opacity="0"
         stop-color="#000000" />
    </linearGradient>
  </defs>
  <g
     sketch:type="MSPage"
     fill-rule="evenodd"
     fill="none"
     stroke-width="1"
     stroke="none"
     id="Page-1">
    <g
       sketch:type="MSArtboardGroup"
       id="Hermes">
      <path
         style="fill:#5c6bc0;filter:url(#filter-1)"
         d="m 7.5948756,9.5224114 c -1.1114024,0 -2.0019532,0.8935846 -2.0019532,1.9941406 l 0,21.410156 c 0,1.088897 0.8959654,1.992187 2.0019532,1.992187 l 4.4433594,0 4.730469,7.4375 4.730469,-7.4375 18.142578,0 c 1.111402,0 2.001953,-0.891632 2.001953,-1.992187 l 0,-21.410156 c 0,-1.088897 -0.895965,-1.9941406 -2.001953,-1.9941406 l -32.0468754,0 z m 14.4023434,4.7382806 1.466797,0 -0.453125,3.796875 2.548828,0 0.47461,-3.796875 1.488281,0 -0.453125,3.796875 1.707031,0 0,1.660156 -1.90039,0 -0.345703,2.814453 1.8125,0 0,1.660157 -2.007813,0 -0.517578,4.255859 -1.511719,0 0.519532,-4.255859 -2.548829,0 -0.496093,4.255859 -1.511719,0 0.498047,-4.255859 -1.664063,0 0,-1.660157 1.857422,0 0.345703,-2.814453 -1.769531,0 0,-1.660156 1.962891,0 0.498046,-3.796875 z m 0.820313,5.457031 -0.345703,2.814453 2.546875,0 0.345703,-2.814453 -2.546875,0 z"
         id="Bottom-bubble"
         inkscape:connector-curvature="0" />
      <g
         transform="translate(3.000000, 6.000000)"
         sketch:type="MSLayerGroup"
         id="Top-bobble-mask">
        <mask
           fill="white"
           sketch:name="Top bubble"
           id="mask-4">
          <use
             id="use47"
             xlink:href="#path-3" />
        </mask>
        <g
           sketch:type="MSShapeGroup"
           mask="url(#mask-4)"
           id="Hash-and-shadow">
          <g
             id="g51"
             transform="translate(12.987124, 5.713953)">
            <path
               fill="url(#linearGradient-5)"
               id="Faux-shadow"
               d="M1.9080625,11.7768524 L1.20577659,14.1627225 L20.6684149,33.7808217 L30.2102359,24.1627839 L30.2102359,24.1627839 L32.3921083,24.1627839 L8.44043614,0.019793955 L7.16197934,2.81931556 L7.16197934,2.81931556 L4.38464215,0.019793955 L3.50771372,1.01421862 L3.50771372,4.66044239 L4.00898992,4.63938905 L2.20382782,10.7720513 L2.20382782,8.85910339 L0.109616054,9.9640406 L1.9080625,11.7768524 Z M6.46116253,4.35394058 L5.96986741,5.42976208 L4.84304823,4.60435903 L6.13849901,4.54995076 L6.46116253,4.35394058 L6.46116253,4.35394058 Z M0.548080269,5.4338838 L2.82772526,7.73173781 L2.82772526,4.65756566 L0.548080269,5.4338838 Z" />
          </g>
        </g>
      </g>
    </g>
  </g>
</svg>
