<?xml version="1.0" encoding="UTF-8" standalone="no"?>
<!-- Created with Inkscape (http://www.inkscape.org/) -->

<svg
   xmlns:dc="http://purl.org/dc/elements/1.1/"
   xmlns:cc="http://creativecommons.org/ns#"
   xmlns:rdf="http://www.w3.org/1999/02/22-rdf-syntax-ns#"
   xmlns:svg="http://www.w3.org/2000/svg"
   xmlns="http://www.w3.org/2000/svg"
   xmlns:sodipodi="http://sodipodi.sourceforge.net/DTD/sodipodi-0.dtd"
   xmlns:inkscape="http://www.inkscape.org/namespaces/inkscape"
   width="192"
   height="192"
   id="svg2"
   version="1.1"
   inkscape:version="0.48.5 r10040"
   sodipodi:docname="torch-app-icon.svg"
   inkscape:export-filename="/mnt/7BDB122D7C8C1600/Visuals/Icons/Numix/Work/Android/torch/torch-app-icon.png"
   inkscape:export-xdpi="90"
   inkscape:export-ydpi="90">
  <defs
     id="defs4">
    <filter
       inkscape:collect="always"
       id="filter3800"
       x="-0.019421053"
       width="1.0388421"
       y="-0.246"
       height="1.492">
      <feGaussianBlur
         inkscape:collect="always"
         stdDeviation="1.23"
         id="feGaussianBlur3802" />
    </filter>
    <filter
       inkscape:collect="always"
       id="filter3796"
       x="-0.033157895"
       width="1.0663158"
       y="-0.315"
       height="1.63">
      <feGaussianBlur
         inkscape:collect="always"
         stdDeviation="2.1"
         id="feGaussianBlur3798" />
    </filter>
  </defs>
  <sodipodi:namedview
     id="base"
     pagecolor="#ffffff"
     bordercolor="#666666"
     borderopacity="1.0"
     inkscape:pageopacity="0.0"
     inkscape:pageshadow="2"
     inkscape:zoom="9.2489567"
     inkscape:cx="43.395671"
     inkscape:cy="15.672839"
     inkscape:document-units="px"
     inkscape:current-layer="layer1"
     showgrid="true"
     inkscape:window-width="1920"
     inkscape:window-height="1052"
     inkscape:window-x="0"
     inkscape:window-y="28"
     inkscape:window-maximized="1">
    <inkscape:grid
       type="xygrid"
       id="grid3766"
       empspacing="5"
       visible="true"
       enabled="true"
       snapvisiblegridlinesonly="true" />
  </sodipodi:namedview>
  <metadata
     id="metadata7">
    <rdf:RDF>
      <cc:Work
         rdf:about="">
        <dc:format>image/svg+xml</dc:format>
        <dc:type
           rdf:resource="http://purl.org/dc/dcmitype/StillImage" />
        <dc:title></dc:title>
      </cc:Work>
    </rdf:RDF>
  </metadata>
  <g
     inkscape:label="Layer 1"
     inkscape:groupmode="layer"
     id="layer1"
     transform="translate(0,-860.36218)">
    <path
       style="fill:#000000;fill-opacity:1;stroke:none;filter:url(#filter3796);opacity:0.15"
       d="m 20,1020.3622 0,6 c 0,5.54 4.46,10 10,10 l 132,0 c 5.54,0 10,-4.46 10,-10 l 0,-6 c 0,5.54 -4.46,10 -10,10 l -132,0 c -5.54,0 -10,-4.46 -10,-10 z"
       id="rect3764"
       inkscape:connector-curvature="0" />
    <rect
       style="opacity:1;fill:#ffc107;fill-opacity:1;stroke:none"
       id="rect2985"
       width="152"
       height="152"
       x="20"
       y="880.36218"
       rx="10"
       ry="10" />
    <path
       style="opacity:0.35;fill:#fff8e1;fill-opacity:1;stroke:none"
       d="m 74,54 -16,-34 76,0 -16,34 -10,8 -24,0 z"
       id="path3804"
       inkscape:connector-curvature="0"
       transform="translate(0,860.36218)"
       sodipodi:nodetypes="ccccccc" />
    <path
       style="fill:#e65100;fill-opacity:1;stroke:none"
       d="m 74,945.36216 0,-31 11,6.00002 11,-17.00002 11,17.00002 11,-6.00002 0,31 z"
       id="path3770"
       inkscape:connector-curvature="0"
       sodipodi:nodetypes="cccccccc" />
    <path
       style="fill:#ff5252;fill-opacity:1;stroke:none"
       d="m 74,54 0,31 11,-1 0,-24 z"
       transform="translate(0,860.36218)"
       id="rect3806"
       inkscape:connector-curvature="0"
       sodipodi:nodetypes="ccccc" />
    <path
       id="path3812"
       d="m 118,914.36218 0,31 -11,0 0,-25 z"
       style="fill:#ff5252;fill-opacity:1;stroke:none"
       inkscape:connector-curvature="0"
       sodipodi:nodetypes="ccccc" />
    <path
       style="fill:#5d4037;fill-opacity:1;stroke:none"
       d="m 123,943.36216 -4,10 0,5 -7,2e-5 -12,51.00002 -8,0 -12,-51.00002 -7,-2e-5 0,-5 -4,-10 z"
       id="path3768"
       inkscape:connector-curvature="0"
       sodipodi:nodetypes="ccccccccccc" />
    <path
       style="fill:#795548;fill-opacity:1;stroke:none"
       d="M 96 83 L 96 93 L 119 93 L 123 83 L 96 83 z M 96 98 L 96 149 L 100 149 L 112 98 L 96 98 z "
       transform="translate(0,860.36218)"
       id="rect3816" />
    <rect
       style="fill:#795548;fill-opacity:1;stroke:none"
       id="rect3823"
       width="23"
       height="5"
       x="73"
       y="953.36218" />
  </g>
</svg>
